<?xml version="1.0" encoding="utf-8"?>
<!-- Generator: Adobe Illustrator 16.0.0, SVG Export Plug-In . SVG Version: 6.00 Build 0)  -->
<!DOCTYPE svg PUBLIC "-//W3C//DTD SVG 1.1//EN" "http://www.w3.org/Graphics/SVG/1.1/DTD/svg11.dtd">
<svg version="1.1" id="Capa_1" xmlns="http://www.w3.org/2000/svg" xmlns:xlink="http://www.w3.org/1999/xlink" x="0px" y="0px"
	 width="32px" height="32px" viewBox="240 240 32 32" enable-background="new 240 240 32 32" xml:space="preserve">
<g>
	<path fill="#FFFFFF" d="M265.027,252.988v-8.125h-3.61v4.514L256,243.96l-1.095,1.096c1.304,1.304,2.111,3.106,2.111,5.096
		c0,3.981-3.227,7.208-7.208,7.208c-1.99,0-3.792-0.807-5.097-2.111l-3.156,3.156v0.902h3.611v9.028h9.028v-5.416h3.611v5.416h9.027
		v-9.028h3.611v-0.902L265.027,252.988z"/>
	<path fill="#FFFFFF" d="M249.808,256.639c3.583,0,6.487-2.904,6.487-6.487s-2.904-6.487-6.487-6.487s-6.487,2.904-6.487,6.487
		S246.226,256.639,249.808,256.639z M246.891,248.897l1.855,1.855l3.979-3.979l1.39,1.39l-5.367,5.368l-0.001-0.001l-0.002,0.001
		l-3.243-3.243L246.891,248.897z"/>
</g>
</svg>
