<?xml version="1.0" encoding="utf-8"?>
<!-- Generator: Adobe Illustrator 16.0.0, SVG Export Plug-In . SVG Version: 6.00 Build 0)  -->
<!DOCTYPE svg PUBLIC "-//W3C//DTD SVG 1.1//EN" "http://www.w3.org/Graphics/SVG/1.1/DTD/svg11.dtd">
<svg version="1.1" id="Layer_1" xmlns="http://www.w3.org/2000/svg" xmlns:xlink="http://www.w3.org/1999/xlink" x="0px" y="0px"
	 width="395.5px" height="381.375px" viewBox="0 -124.875 395.5 381.375" enable-background="new 0 -124.875 395.5 381.375"
	 xml:space="preserve">
<g>
	<g>
		<g>
			<defs>
				<rect id="SVGID_1_" x="5.891" y="-110.683" width="383.719" height="175.009"/>
			</defs>
			<clipPath id="SVGID_2_">
				<use xlink:href="#SVGID_1_"  overflow="visible"/>
			</clipPath>
			<g clip-path="url(#SVGID_2_)">
				<path fill="#FFFFFF" d="M380.855,64.326l-34.014-21.239l20.363-35.25l-35.74-61.944l-40.775-0.011l-1.389-40.128L253.877-75.4
					l-20.369-35.282h-71.516L141.62-75.4l-35.423-18.847l-1.396,40.33l-41.027,0.101L28.166,8.209l20.316,34.987l-33.837,21.13
					l34.011,21.238l-20.365,35.251l35.742,61.945l40.774,0.011l1.39,40.126l35.422-18.846l20.369,35.285h71.518l20.373-35.285
					l35.42,18.846l1.398-40.329l41.025-0.1l35.605-62.024l-20.314-34.988L380.855,64.326z M197.748,198.044
					c-73.849,0-133.714-59.868-133.714-133.718C64.034-9.521,123.9-69.39,197.748-69.39c73.85,0,133.717,59.868,133.717,133.716
					C331.465,138.176,271.598,198.044,197.748,198.044z"/>
				<path fill="#FFFFFF" d="M325.512,38.223l-25.758-14.871l13.756-25.86L284.07-3.53l-0.074-29.951l-45.279-25.992l-25.543,14.831
					l-15.426-24.703l-15.506,24.831L156.51-59.384l-45.223,26.093l-0.008,29.768L81.986-2.509l13.759,25.86L69.986,38.223v52.209
					l25.759,14.869l-13.759,25.862l29.442,1.019l0.074,29.952l45.278,25.994l25.543-14.83l15.426,24.701l15.506-24.828
					l25.734,14.864l45.223-26.09l0.008-29.766l29.293-1.017l-13.76-25.859l25.76-14.872V38.223H325.512z M197.748,160.268
					c-52.986,0-95.939-42.955-95.939-95.941c0-52.987,42.953-95.941,95.939-95.941c52.99,0,95.943,42.954,95.943,95.941
					C293.691,117.313,250.738,160.268,197.748,160.268z"/>
				<path fill="#FFFFFF" d="M293.473,64.326l-17.779-11.103l10.646-18.428L267.654,2.412l-21.318-0.006l-0.727-20.977l-18.518,9.853
					l-10.652-18.446h-37.383L168.404-8.718l-18.516-9.853l-0.73,21.083L127.71,2.565l-18.615,32.424l10.62,18.289l-17.687,11.048
					l17.78,11.104l-10.646,18.428l18.685,32.383l21.315,0.005l0.729,20.978l18.516-9.852l10.65,18.445h37.387l10.652-18.448
					l18.516,9.854l0.73-21.082l21.447-0.056l18.615-32.422l-10.621-18.29L293.473,64.326z M197.748,131.999
					c-37.373,0-67.67-30.298-67.67-67.673c0-37.374,30.297-67.671,67.67-67.671c37.375,0,67.672,30.297,67.672,67.671
					C265.42,101.701,235.123,131.999,197.748,131.999z"/>
				<path fill="#FFFFFF" d="M262.41,51.115l-13.035-7.526l6.965-13.088l-14.904-0.517L241.4,14.826L218.482,1.674l-12.926,7.505
					l-7.809-12.501l-7.846,12.564l-13.025-7.523l-22.889,13.204l-0.004,15.064l-14.824,0.514l6.963,13.088l-13.036,7.526v26.422
					l13.036,7.527l-6.963,13.087l14.9,0.519l0.037,15.156l22.916,13.156l12.926-7.504l7.809,12.497l7.85-12.563l13.021,7.525
					l22.889-13.205l0.004-15.065l14.828-0.516l-6.965-13.087l13.035-7.527V51.115L262.41,51.115z M197.75,113.046
					c-26.906,0-48.721-21.813-48.721-48.718c0-26.908,21.814-48.721,48.721-48.721s48.721,21.813,48.721,48.721
					C246.471,91.232,224.656,113.046,197.75,113.046z"/>
			</g>
		</g>
	</g>
	<g>
		<path fill="#FFFFFF" d="M15.61,197.104V79.112h87.487v19.96H39.435v26.158h59.237v19.88H39.435v32.113h65.917v19.88L15.61,197.104
			L15.61,197.104z"/>
		<path fill="#FFFFFF" d="M125.553,197.104V79.112h38.23c14.487,0,23.931,0.59,28.331,1.77c6.762,1.771,12.422,5.624,16.982,11.551
			c4.56,5.93,6.841,13.589,6.841,22.978c0,7.244-1.316,13.336-3.942,18.271c-2.63,4.938-5.97,8.814-10.02,11.631
			c-4.053,2.815-8.171,4.682-12.355,5.593c-5.688,1.127-13.925,1.689-24.71,1.689h-15.533v44.51H125.553L125.553,197.104z
			 M149.377,99.072v33.482h13.039c9.389,0,15.666-0.616,18.833-1.852c3.166-1.233,5.646-3.164,7.444-5.795
			c1.798-2.628,2.697-5.688,2.697-9.177c0-4.292-1.262-7.833-3.783-10.624c-2.521-2.79-5.714-4.533-9.578-5.23
			c-2.843-0.536-8.56-0.805-17.144-0.805H149.377L149.377,99.072z"/>
		<path fill="#FFFFFF" d="M234.773,197.104V79.112h23.823v117.992H234.773L234.773,197.104z"/>
		<path fill="#FFFFFF" d="M356.791,153.725l23.099,7.323c-3.541,12.879-9.431,22.442-17.666,28.693
			c-8.237,6.251-18.688,9.375-31.35,9.375c-15.669,0-28.545-5.351-38.632-16.057c-10.089-10.705-15.132-25.338-15.132-43.905
			c0-19.64,5.069-34.89,15.211-45.757C302.462,82.532,315.795,77.1,332.322,77.1c14.435,0,26.158,4.267,35.174,12.797
			c5.363,5.046,9.39,12.288,12.074,21.731l-23.585,5.634c-1.394-6.115-4.304-10.945-8.731-14.487
			c-4.427-3.541-9.807-5.313-16.139-5.313c-8.747,0-15.844,3.139-21.288,9.418c-5.447,6.276-8.171,16.448-8.171,30.507
			c0,14.917,2.684,25.54,8.05,31.871c5.364,6.333,12.341,9.496,20.928,9.496c6.329,0,11.777-2.012,16.338-6.036
			C351.53,168.693,354.804,162.36,356.791,153.725z"/>
	</g>
	<g>
		<path fill="#FFFFFF" d="M14.484,241.79v-30.444h9.199l5.523,20.767l5.462-20.767h9.222v30.444H38.18v-23.965l-6.044,23.965h-5.919
			l-6.022-23.965v23.965H14.484L14.484,241.79z"/>
		<path fill="#FFFFFF" d="M90.006,226.755c0-3.103,0.464-5.704,1.391-7.809c0.692-1.551,1.638-2.942,2.836-4.174
			c1.198-1.232,2.509-2.147,3.935-2.743c1.897-0.802,4.085-1.204,6.563-1.204c4.485,0,8.075,1.39,10.767,4.173
			c2.692,2.784,4.039,6.653,4.039,11.608c0,4.916-1.335,8.763-4.008,11.537c-2.672,2.776-6.243,4.164-10.716,4.164
			c-4.527,0-8.127-1.382-10.799-4.144C91.341,235.404,90.006,231.601,90.006,226.755z M96.339,226.547
			c0,3.447,0.796,6.062,2.389,7.839c1.592,1.78,3.614,2.669,6.063,2.669s4.462-0.883,6.032-2.646
			c1.571-1.767,2.357-4.414,2.357-7.944c0-3.489-0.766-6.092-2.295-7.809c-1.53-1.717-3.562-2.575-6.095-2.575
			s-4.576,0.87-6.126,2.605C97.114,220.425,96.339,223.044,96.339,226.547z"/>
		<path fill="#FFFFFF" d="M165.608,211.346h12.169c2.408,0,4.205,0.1,5.389,0.302s2.243,0.62,3.178,1.256
			c0.934,0.637,1.712,1.485,2.336,2.543c0.622,1.061,0.935,2.248,0.935,3.563c0,1.426-0.385,2.734-1.153,3.925
			c-0.769,1.191-1.811,2.084-3.125,2.68c1.854,0.539,3.28,1.46,4.278,2.762c0.997,1.301,1.495,2.831,1.495,4.589
			c0,1.385-0.322,2.732-0.966,4.039c-0.643,1.311-1.522,2.354-2.637,3.139c-1.114,0.78-2.487,1.263-4.122,1.442
			c-1.025,0.11-3.496,0.18-7.413,0.208h-10.363V211.346L165.608,211.346z M171.755,216.413v7.039h4.029
			c2.395,0,3.884-0.034,4.464-0.104c1.053-0.124,1.88-0.487,2.481-1.091c0.603-0.601,0.903-1.395,0.903-2.379
			c0-0.941-0.26-1.705-0.778-2.292c-0.52-0.59-1.292-0.947-2.315-1.072c-0.609-0.068-2.36-0.102-5.254-0.102H171.755z
			 M171.755,228.519v8.141h5.691c2.216,0,3.62-0.062,4.216-0.188c0.914-0.164,1.657-0.568,2.232-1.214
			c0.574-0.643,0.862-1.506,0.862-2.585c0-0.915-0.221-1.688-0.665-2.327c-0.443-0.637-1.083-1.099-1.921-1.39
			s-2.655-0.438-5.451-0.438H171.755z"/>
		<path fill="#FFFFFF" d="M237.37,241.79v-30.444h6.146v30.444H237.37z"/>
		<path fill="#FFFFFF" d="M290.793,241.79v-30.195h6.147v25.067h15.284v5.128H290.793z"/>
		<path fill="#FFFFFF" d="M357.86,241.79v-30.444h22.574v5.15h-16.427v6.75h15.284v5.128h-15.284v8.288h17.008v5.128H357.86
			L357.86,241.79z"/>
	</g>
</g>
</svg>
