<?xml version="1.0" encoding="utf-8"?>
<!-- Generator: Adobe Illustrator 16.0.0, SVG Export Plug-In . SVG Version: 6.00 Build 0)  -->
<!DOCTYPE svg PUBLIC "-//W3C//DTD SVG 1.1//EN" "http://www.w3.org/Graphics/SVG/1.1/DTD/svg11.dtd">
<svg version="1.1" id="Layer_1" xmlns="http://www.w3.org/2000/svg" xmlns:xlink="http://www.w3.org/1999/xlink" x="0px" y="0px"
	 width="40px" height="40px" viewBox="0 0 40 40" enable-background="new 0 0 40 40" xml:space="preserve">
<path fill="#FFFFFF" d="M0,0v40h40V0H0z M31.56,19.177c0.589,1.607,0.922,2.783,1.001,3.528c0,1.647-0.491,3.118-1.472,4.412
	c-0.784,0.941-2.02,1.981-3.705,3.117c-0.471,0.314-1.196,0.628-2.177,0.941l-1.294,0.472C23.56,31.804,23.267,31.921,23.03,32
	c-0.039,0.039-0.254,0.138-0.646,0.294c-0.236,0.117-0.608,0.274-1.118,0.471c-0.627,0.353-1.078,0.745-1.353,1.177
	c-0.235-0.393-0.687-0.785-1.353-1.177l-0.824-0.354c-0.117-0.039-0.265-0.107-0.441-0.205c-0.176-0.099-0.324-0.167-0.441-0.206
	c-1.02-0.236-2.471-0.824-4.353-1.766c-1.765-1.136-3.02-2.194-3.765-3.175c-0.98-1.295-1.451-2.745-1.412-4.354
	c0.039-0.353,0.117-0.843,0.235-1.47c0.157-0.627,0.393-1.353,0.706-2.176c0.549-1.53,0.804-2.726,0.765-3.588
	c-0.118-1.843-0.667-3.627-1.647-5.353l4.059-3.882c1.216,0.941,2.608,1.471,4.176,1.588c1.49,0.117,2.922-0.157,4.294-0.824
	c1.334,0.706,2.765,0.981,4.294,0.824c1.646-0.079,3.117-0.667,4.411-1.765L32.678,10c-1.059,1.647-1.666,3.471-1.824,5.471
	C30.775,16.333,31.012,17.569,31.56,19.177z"/>
<g>
</g>
<g>
</g>
<g>
</g>
<g>
</g>
<g>
</g>
<g>
</g>
</svg>
