<?xml version="1.0" encoding="utf-8"?>
<!-- Generator: Adobe Illustrator 16.0.0, SVG Export Plug-In . SVG Version: 6.00 Build 0)  -->
<!DOCTYPE svg PUBLIC "-//W3C//DTD SVG 1.1//EN" "http://www.w3.org/Graphics/SVG/1.1/DTD/svg11.dtd">
<svg version="1.1" id="Layer_1" xmlns="http://www.w3.org/2000/svg" xmlns:xlink="http://www.w3.org/1999/xlink" x="0px" y="0px"
	 width="40px" height="40px" viewBox="0 0 40 40" enable-background="new 0 0 40 40" xml:space="preserve">
<path fill="#FFFFFF" d="M0,0v40h40V0H0z M17.943,8.248C18.157,7.647,19.125,7.336,20,7.336s1.842,0.312,2.056,0.912
	c0.321,0.901,0.831,2.328,1.423,3.993C23.049,13,21.58,13.49,20,13.49c-1.58,0-3.05-0.489-3.479-1.249
	C17.113,10.576,17.622,9.149,17.943,8.248z M15.232,15.854c0.373,1.072,2.427,1.829,4.768,1.829s4.396-0.756,4.768-1.829
	c0.536,1.504,1.081,3.033,1.582,4.437c-0.171,1.492-2.987,2.636-6.35,2.636c-3.363,0-6.178-1.144-6.348-2.636
	C14.151,18.887,14.696,17.357,15.232,15.854z M32.493,26.771L22.555,32.1c-1.404,0.753-3.705,0.753-5.111,0l-9.938-5.328
	c-1.405-0.754-1.344-1.859,0.138-2.456l5.284-2.129l-0.608,1.698c0.03,1.799,3.523,3.233,7.679,3.233s7.649-1.435,7.68-3.233
	l-0.609-1.698l5.285,2.129C33.837,24.912,33.899,26.018,32.493,26.771z"/>
<g>
</g>
<g>
</g>
<g>
</g>
<g>
</g>
<g>
</g>
<g>
</g>
</svg>
