<?xml version="1.0" encoding="utf-8"?>
<!-- Generator: Adobe Illustrator 16.0.0, SVG Export Plug-In . SVG Version: 6.00 Build 0)  -->
<!DOCTYPE svg PUBLIC "-//W3C//DTD SVG 1.1//EN" "http://www.w3.org/Graphics/SVG/1.1/DTD/svg11.dtd">
<svg version="1.1" id="Layer_1" xmlns="http://www.w3.org/2000/svg" xmlns:xlink="http://www.w3.org/1999/xlink" x="0px" y="0px"
	 width="40px" height="40px" viewBox="0 0 40 40" enable-background="new 0 0 40 40" xml:space="preserve">
<g>
	<circle fill="#FFFFFF" cx="20" cy="26.026" r="1.71"/>
	<path fill="#FFFFFF" d="M22.843,10.083C22.249,9.056,21.187,8.442,20,8.442s-2.249,0.613-2.842,1.641L7.602,26.635
		c-0.593,1.028-0.593,2.255,0,3.282c0.593,1.027,1.656,1.642,2.842,1.642h19.112c1.188,0,2.249-0.614,2.842-1.642
		c0.594-1.027,0.594-2.254,0-3.282L22.843,10.083z M31.553,29.409c-0.487,0.846-1.362,1.351-2.34,1.351H10.786
		c-0.976,0-1.85-0.505-2.338-1.351c-0.488-0.846-0.488-1.854,0-2.7l9.214-15.959C18.15,9.904,19.024,9.4,20,9.4
		c0.977,0,1.851,0.504,2.339,1.35l9.214,15.959C32.041,27.555,32.041,28.563,31.553,29.409z"/>
	<path fill="#FFFFFF" d="M20,22.813c0.92,0,1.668-0.748,1.668-1.668V15.73c0-0.92-0.748-1.669-1.668-1.669s-1.668,0.749-1.668,1.669
		v5.415C18.332,22.064,19.08,22.813,20,22.813z"/>
	<path fill="#FFFFFF" d="M0,0v40h40V0H0z M33.545,30.579c-0.833,1.441-2.324,2.303-3.989,2.303H10.444
		c-1.665,0-3.156-0.861-3.989-2.303c-0.833-1.442-0.833-3.164,0-4.605l9.557-16.552C16.844,7.98,18.335,7.119,20,7.119
		s3.156,0.861,3.988,2.303l9.557,16.552C34.377,27.415,34.377,29.137,33.545,30.579z"/>
</g>
<g>
</g>
<g>
</g>
<g>
</g>
<g>
</g>
<g>
</g>
<g>
</g>
</svg>
