<?xml version="1.0" encoding="utf-8"?>
<!-- Generator: Adobe Illustrator 16.0.0, SVG Export Plug-In . SVG Version: 6.00 Build 0)  -->
<!DOCTYPE svg PUBLIC "-//W3C//DTD SVG 1.1//EN" "http://www.w3.org/Graphics/SVG/1.1/DTD/svg11.dtd">
<svg version="1.1" id="Layer_1" xmlns="http://www.w3.org/2000/svg" xmlns:xlink="http://www.w3.org/1999/xlink" x="0px" y="0px"
	 width="40px" height="40px" viewBox="0 0 40 40" enable-background="new 0 0 40 40" xml:space="preserve">
<path fill="#FFFFFF" d="M0,0v40h40V0H0z M20,32.818c-5.751,0-10.414-4.663-10.414-10.414c0-2.379,1.07-5.311,3.205-6.409
	c0,0,0.382,3.953,2.403,5.607c0.241-2.653-1.628-11.389,6.408-14.419c0,4.881-0.102,8.269,2.403,11.215
	c-0.226-1.804,0.417-4.644,3.93-5.646c-0.03,4.656,2.479,6.232,2.479,9.651C30.414,28.155,25.751,32.818,20,32.818z"/>
<g>
</g>
<g>
</g>
<g>
</g>
<g>
</g>
<g>
</g>
<g>
</g>
</svg>
