<?xml version="1.0" encoding="utf-8"?>
<!-- Generator: Adobe Illustrator 16.0.0, SVG Export Plug-In . SVG Version: 6.00 Build 0)  -->
<!DOCTYPE svg PUBLIC "-//W3C//DTD SVG 1.1//EN" "http://www.w3.org/Graphics/SVG/1.1/DTD/svg11.dtd">
<svg version="1.1" id="Layer_1" xmlns="http://www.w3.org/2000/svg" xmlns:xlink="http://www.w3.org/1999/xlink" x="0px" y="0px"
	 width="40px" height="40px" viewBox="0 0 40 40" enable-background="new 0 0 40 40" xml:space="preserve">
<g>
	<path fill="#FFFFFF" d="M9.686,29.191c-0.31,0.31-0.31,0.813,0,1.122s0.813,0.31,1.123,0l8.044-8.044l-1.122-1.122L9.686,29.191z"
		/>
	<path fill="#FFFFFF" d="M0,0v40h40V0H0z M32.12,22.711l-5.897,5.897c-1.074,1.073-2.815,1.073-3.889,0
		c-0.896-0.896-1.044-2.254-0.446-3.304l-1.352-1.351l-8.044,8.043c-1.238,1.238-3.252,1.238-4.489,0
		c-1.238-1.238-1.238-3.251,0-4.489l8.044-8.044l-1.352-1.351c-1.049,0.597-2.408,0.449-3.303-0.446
		c-1.074-1.074-1.074-2.815,0-3.889l5.896-5.897c1.074-1.074,2.816-1.074,3.89,0c0.896,0.895,1.043,2.254,0.446,3.303l7.192,7.192
		c1.049-0.598,2.407-0.45,3.303,0.446C33.194,19.896,33.194,21.638,32.12,22.711z"/>
</g>
<g>
</g>
<g>
</g>
<g>
</g>
<g>
</g>
<g>
</g>
<g>
</g>
</svg>
