<?xml version="1.0" encoding="utf-8"?>
<!-- Generator: Adobe Illustrator 16.0.0, SVG Export Plug-In . SVG Version: 6.00 Build 0)  -->
<!DOCTYPE svg PUBLIC "-//W3C//DTD SVG 1.1//EN" "http://www.w3.org/Graphics/SVG/1.1/DTD/svg11.dtd">
<svg version="1.1" id="Capa_1" xmlns="http://www.w3.org/2000/svg" xmlns:xlink="http://www.w3.org/1999/xlink" x="0px" y="0px"
	 width="300px" height="300px" viewBox="0 0 300 300" enable-background="new 0 0 300 300" xml:space="preserve">
<g>
	<path fill="#4C6591" d="M259.438,109.874c-1.038,0-2.105,0.149-3.168,0.441l-12.036,3.316l-12.5-30.448
		c-3.541-8.625-14.008-15.643-23.331-15.643h-31.881C175.423,53.864,163.953,43.07,150,43.07c-13.954,0-25.424,10.794-26.521,24.47
		H91.428c-9.325,0-19.791,7.018-23.33,15.643l-12.482,30.406l-11.886-3.274c-1.063-0.293-2.13-0.441-3.168-0.441
		c-5.688,0-9.817,4.346-9.817,10.333v7.098c0,6.989,5.686,12.674,12.675,12.674h1.361l-2.017,4.913
		c-3.29,8.014-5.967,21.582-5.967,30.245v60.487c0,6.988,5.686,12.674,12.674,12.674h16.556c6.988,0,12.674-5.686,12.674-12.674
		v-15.107h142.424v15.107c0,6.988,5.686,12.674,12.676,12.674h16.555c6.989,0,12.674-5.686,12.674-12.674v-60.487
		c0-8.663-2.675-22.231-5.968-30.245l-2.017-4.913h1.53c6.989,0,12.675-5.686,12.675-12.674v-7.098
		C269.254,114.22,265.126,109.874,259.438,109.874z M64.704,133.095L83.61,87.04c2.118-5.159,8.414-9.381,13.991-9.381h104.628
		c5.577,0,11.873,4.221,13.99,9.381l18.907,46.055c2.117,5.159-0.713,9.381-6.289,9.381H70.993
		C65.417,142.476,62.586,138.254,64.704,133.095z M106.91,191.346c0,2.788-2.282,5.07-5.07,5.07H65.924
		c-2.789,0-5.07-2.281-5.07-5.07v-17.237c0-2.788,2.282-5.07,5.07-5.07h35.916c2.79,0,5.07,2.282,5.07,5.07V191.346z
		 M238.638,191.346c0,2.788-2.281,5.07-5.07,5.07H197.65c-2.788,0-5.069-2.281-5.069-5.07v-17.237c0-2.788,2.282-5.07,5.069-5.07
		h35.917c2.789,0,5.07,2.282,5.07,5.07V191.346z"/>
	<path fill="#4C6591" d="M149.915,32.993c2.305,0,4.174-1.869,4.174-4.174V15.521c0-2.305-1.869-4.174-4.174-4.174
		s-4.174,1.869-4.174,4.174v13.298C145.741,31.125,147.61,32.993,149.915,32.993z"/>
	<path fill="#4C6591" d="M114.172,32.555l10.441,7.033c0.716,0.482,1.526,0.713,2.328,0.713c1.341,0,2.659-0.646,3.465-1.843
		c1.288-1.912,0.783-4.505-1.129-5.793l-10.441-7.034c-1.916-1.289-4.506-0.781-5.794,1.13
		C111.755,28.673,112.26,31.267,114.172,32.555z"/>
	<path fill="#4C6591" d="M172.89,40.302c0.801,0,1.613-0.231,2.328-0.713l10.44-7.033c1.911-1.288,2.417-3.882,1.128-5.793
		c-1.287-1.912-3.881-2.418-5.793-1.13l-10.441,7.034c-1.911,1.288-2.416,3.881-1.129,5.793
		C170.229,39.655,171.547,40.302,172.89,40.302z"/>
</g>
</svg>
