<?xml version="1.0" encoding="utf-8"?>
<!-- Generator: Adobe Illustrator 16.0.0, SVG Export Plug-In . SVG Version: 6.00 Build 0)  -->
<!DOCTYPE svg PUBLIC "-//W3C//DTD SVG 1.1//EN" "http://www.w3.org/Graphics/SVG/1.1/DTD/svg11.dtd">
<svg version="1.1" id="Layer_1" xmlns="http://www.w3.org/2000/svg" xmlns:xlink="http://www.w3.org/1999/xlink" x="0px" y="0px"
	 width="100px" height="100px" viewBox="0 0 100 100" enable-background="new 0 0 100 100" xml:space="preserve">
<path fill="#385186" d="M91.262,80.434L64.716,53.887c-1.059-1.059-3.066-0.895-5.174,0.221c3.682-4.826,5.872-10.849,5.872-17.387
	c0-15.848-12.847-28.694-28.694-28.694S8.026,20.873,8.026,36.721c0,15.847,12.847,28.693,28.694,28.693
	c6.538,0,12.562-2.191,17.388-5.873c-1.115,2.107-1.278,4.113-0.22,5.173l26.545,26.547c1.585,1.582,5.29,0.442,8.28-2.547
	C91.704,85.724,92.844,82.017,91.262,80.434z M36.72,58.155c-11.838,0-21.436-9.597-21.436-21.435
	c0-11.839,9.597-21.436,21.436-21.436s21.435,9.597,21.435,21.436C58.155,48.558,48.559,58.155,36.72,58.155z"/>
<g>
</g>
<g>
</g>
<g>
</g>
<g>
</g>
<g>
</g>
<g>
</g>
</svg>
